REM MD5 265b5570a13d12d717724b4414544d60
FILE "One (USA).bin" BINARY
  TRACK 01 MODE2/2352
    INDEX 01 00:00:00
  TRACK 02 AUDIO
    INDEX 00 05:42:51
    INDEX 01 05:44:51
  TRACK 03 AUDIO
    INDEX 00 06:35:01
    INDEX 01 06:37:01
  TRACK 04 AUDIO
    INDEX 00 08:34:74
    INDEX 01 08:36:74
  TRACK 05 AUDIO
    INDEX 00 09:07:60
    INDEX 01 09:09:60
REM LEADOUT 12:10:63
